<svg width="160" height="20" viewBox="0 0 160 20" fill="none" xmlns="http://www.w3.org/2000/svg">
<path d="M38.8423 15.9809C38.8423 16.911 39.2412 17.31 40.1713 17.31H42.4844V19.836H39.7846C37.1533 19.836 35.9834 18.5608 35.9834 16.1131V0H38.8423V15.9809Z" fill="#39344B"/>
<path d="M20.115 13.0266C20.115 10.3929 18.5192 8.50324 16.0984 8.50324C13.6776 8.50324 12.1087 10.3929 12.1087 13.0266C12.1087 15.6603 13.6776 17.5499 16.0984 17.5499C18.5192 17.5499 20.115 15.6603 20.115 13.0266ZM9.15433 13.0266C9.15433 8.87529 11.9471 6.05556 16.0984 6.05556C20.2497 6.05556 23.0425 8.87529 23.0425 13.0266C23.0425 17.1778 20.2497 19.9976 16.0984 19.9976C11.9471 19.9976 9.15433 17.2047 9.15433 13.0266Z" fill="#39344B"/>
<path d="M32.7622 6.222V8.74556H30.946C28.4445 8.74556 27.2647 9.90576 27.2647 12.0059V19.836H24.3936V6.222H27.2647V8.74556C27.6343 7.08359 28.7823 6.222 31.017 6.222H32.7622Z" fill="#39344B"/>
<path d="M8.32701 6.222H5.80345V8.74556H8.32701V6.222Z" fill="#39344B"/>
<path d="M34.1574 6.222V8.74556H35.9809V6.222H34.1574Z" fill="#39344B"/>
<path d="M4.68241 3.8551C4.68241 2.92498 5.08139 2.52601 6.0115 2.52601H8.32456V0H5.62477C2.99351 0 1.82352 1.27524 1.82352 3.72292V19.8385H4.68241V3.8551Z" fill="#39344B"/>
<path d="M1.82352 8.74556V6.222H0V8.74556H1.82352Z" fill="#39344B"/>
<path d="M53.6899 11.5359C53.45 9.51414 52.0401 8.36862 50.0453 8.36862C48.2095 8.36862 46.6406 9.59246 46.4276 11.5359H53.6899ZM43.3117 13.051C43.3117 8.84837 45.9993 6.05311 50.0159 6.05311C54.0326 6.05311 56.5879 8.55464 56.6663 12.5444C56.6663 12.8895 56.6393 13.264 56.5855 13.636H46.315V13.8221C46.3958 16.1376 47.8571 17.6527 50.1187 17.6527C51.8737 17.6527 53.1514 16.774 53.5504 15.2588H56.4239C55.9442 17.9464 53.6556 19.9951 50.2778 19.9951C45.9944 19.9951 43.3068 17.2292 43.3068 13.051" fill="#39344B"/>
<path d="M39.792 7.48501C39.792 6.69441 40.4308 6.05556 41.2214 6.05556C42.012 6.05556 42.6508 6.69441 42.6508 7.48501C42.6508 8.27561 42.0095 8.91445 41.2214 8.91445C40.4332 8.91445 39.792 8.27561 39.792 7.48501Z" fill="#39344B"/>
<path d="M104.761 17.5792C102.369 17.5792 100.8 15.719 100.8 13.0339C100.8 10.3488 102.369 8.51548 104.761 8.51548C107.152 8.51548 108.721 10.3757 108.721 13.0853C108.721 15.7949 107.152 17.5768 104.761 17.5768M108.694 8.11896C107.818 6.92449 106.357 6.0727 104.283 6.0727C100.59 6.0727 97.8534 8.83613 97.8534 13.0339C97.8534 17.2317 100.59 19.9951 104.283 19.9951C106.435 19.9951 107.813 18.9842 108.692 17.7897V19.836H111.565V0H108.694V8.11896Z" fill="#39344B"/>
<path d="M123.18 6.222L119.484 16.7519L115.734 6.222H112.65L117.675 19.8385H121.185L126.212 6.222H123.18Z" fill="#39344B"/>
<path d="M130.207 6.22445H127.336V19.8385H130.207V6.22445Z" fill="#39344B"/>
<path d="M138.6 8.51059C140.382 8.51059 141.525 9.49455 141.897 11.0904H144.903C144.345 8.00636 142.164 6.06535 138.654 6.06535C134.532 6.06535 131.82 8.85816 131.82 13.0584C131.82 17.2586 134.454 19.9976 138.573 19.9976C142.056 19.9976 144.369 18.0565 144.903 14.9725H141.87C141.525 16.5414 140.355 17.5523 138.6 17.5523C136.287 17.5523 134.772 15.7166 134.772 13.0584C134.772 10.4002 136.287 8.51059 138.6 8.51059Z" fill="#39344B"/>
<path d="M98.0492 17.31H95.5257V19.8336H98.0492V17.31Z" fill="#39344B"/>
<path d="M98.0492 17.31H95.5257V19.8336H98.0492V17.31Z" fill="#39344B"/>
<path d="M156.84 11.5359C156.6 9.51414 155.19 8.36862 153.195 8.36862C151.36 8.36862 149.791 9.59246 149.578 11.5359H156.84ZM146.464 13.051C146.464 8.84837 149.152 6.05311 153.169 6.05311C157.185 6.05311 159.741 8.55464 159.819 12.5444C159.819 12.8895 159.792 13.264 159.738 13.636H149.468V13.8221C149.548 16.1376 151.01 17.6527 153.271 17.6527C155.026 17.6527 156.304 16.774 156.703 15.2588H159.577C159.097 17.9464 156.808 19.9951 153.43 19.9951C149.147 19.9951 146.459 17.2292 146.459 13.051" fill="#39344B"/>
<path d="M92.679 14.2504C92.6521 16.353 91.2692 17.7628 88.8753 17.7628C87.3064 17.7628 86.3469 16.9649 86.3469 15.8218C86.3469 14.4389 87.3308 13.7731 89.1152 13.7731H92.6815V14.2528L92.679 14.2504ZM95.5257 14.7155V11.0048C95.5257 7.78607 93.4501 6.05556 89.8324 6.05556C86.4007 6.05556 84.1122 7.7053 83.8184 10.3659H86.6382C86.8511 9.16901 87.9942 8.37107 89.6978 8.37107C91.5874 8.37107 92.6766 9.30119 92.6766 10.8187V11.6436H89.2449C85.4412 11.6436 83.417 13.2126 83.417 16.0078C83.417 18.5363 85.4926 20 88.4715 20C90.6768 20 91.9766 19.1678 92.8822 17.7873C92.8822 17.7873 92.9091 17.7481 92.9654 17.6576C93.0609 17.5107 93.1416 17.3124 93.1416 17.3124H95.5232V14.7179L95.5257 14.7155Z" fill="#39344B"/>
<path d="M127.211 2.98372C127.211 2.12214 127.911 1.4221 128.773 1.4221C129.634 1.4221 130.334 2.12214 130.334 2.98372C130.334 3.84531 129.634 4.54534 128.773 4.54534C127.911 4.54534 127.211 3.84531 127.211 2.98372Z" fill="#39344B"/>
</svg>
